<svg id="Capa_1" enable-background="new 0 0 512 512" height="512" viewBox="0 0 512 512" width="512" xmlns="http://www.w3.org/2000/svg"><path d="m187.5 371h137v70h-137z" fill="#0097f0"/><path d="m256 371h68.5v70h-68.5z" fill="#0052c2"/><path d="m352 436h-192c-8.284 0-15 6.716-15 15s6.716 15 15 15h192c8.284 0 15-6.716 15-15s-6.716-15-15-15z" fill="#00b8f0"/><path d="m367 451c0 8.28-6.72 15-15 15h-96v-30h96c8.28 0 15 6.72 15 15z" fill="#0097f0"/><path d="m482 16h-452c-16.542 0-30 13.458-30 30v300c0 16.618 13.554 30 29.953 30h452.047c16.569 0 30-13.431 30-30 0-11.942 0-283.707 0-300 0-16.542-13.458-30-30-30z" fill="#00b8f0"/><path d="m512 46v300c0 16.57-13.43 30-30 30h-226v-360h226c16.54 0 30 13.46 30 30z" fill="#0097f0"/><path d="m30 46h452v245h-452z" fill="#ffda2d"/><path d="m256 46h226v245h-226z" fill="#fdbf00"/><path d="m416.133 196h-110.266c-19.225 0-34.867 15.701-34.867 35v230c0 19.299 15.642 35 34.867 35h110.266c19.225 0 34.867-15.701 34.867-35v-230c0-19.299-15.642-35-34.867-35z" fill="#0052c2"/><path d="m451 231v230c0 19.3-15.64 35-34.87 35h-55.13v-300h55.13c19.23 0 34.87 15.7 34.87 35z" fill="#003481"/><path d="m301 266h120v160h-120z" fill="#ffda2d"/><path d="m361 266h60v160h-60z" fill="#fdbf00"/></svg>